ModelForces
version=1
nRows=4
nColumns=157
inDegrees=no

This file contains the forces exerted on a model during a simulation.

A force is a generalized force, meaning that it can be either a force (N) or a torque (Nm).

Units are S.I. units (second, meters, Newtons, ...)
Angles are in degrees.

endheader
time	glut_med1_r	glut_med2_r	glut_med3_r	glut_min1_r	glut_min2_r	glut_min3_r	semimem_r	semiten_r	bifemlh_r	bifemsh_r	sar_r	add_long_r	add_brev_r	add_mag1_r	add_mag2_r	add_mag3_r	tfl_r	pect_r	grac_r	glut_max1_r	glut_max2_r	glut_max3_r	iliacus_r	psoas_r	quad_fem_r	gem_r	peri_r	rect_fem_r	vas_med_r	vas_int_r	vas_lat_r	med_gas_r	lat_gas_r	soleus_r	tib_post_r	flex_dig_r	flex_hal_r	tib_ant_r	per_brev_r	per_long_r	per_tert_r	ext_dig_r	ext_hal_r	glut_med1_l	glut_med2_l	glut_med3_l	glut_min1_l	glut_min2_l	glut_min3_l	semimem_l	semiten_l	bifemlh_l	bifemsh_l	sar_l	add_long_l	add_brev_l	add_mag1_l	add_mag2_l	add_mag3_l	tfl_l	pect_l	grac_l	glut_max1_l	glut_max2_l	glut_max3_l	iliacus_l	psoas_l	quad_fem_l	gem_l	peri_l	rect_fem_l	vas_med_l	vas_int_l	vas_lat_l	med_gas_l	lat_gas_l	soleus_l	tib_post_l	flex_dig_l	flex_hal_l	tib_ant_l	per_brev_l	per_long_l	per_tert_l	ext_dig_l	ext_hal_l	ercspn_r	ercspn_l	intobl_r	intobl_l	extobl_r	extobl_l	femur_lat_meniscii_r.femur_lat_r.force.X	femur_lat_meniscii_r.femur_lat_r.force.Y	femur_lat_meniscii_r.femur_lat_r.force.Z	femur_lat_meniscii_r.femur_lat_r.torque.X	femur_lat_meniscii_r.femur_lat_r.torque.Y	femur_lat_meniscii_r.femur_lat_r.torque.Z	femur_lat_meniscii_r.meniscus_lat_r.force.X	femur_lat_meniscii_r.meniscus_lat_r.force.Y	femur_lat_meniscii_r.meniscus_lat_r.force.Z	femur_lat_meniscii_r.meniscus_lat_r.torque.X	femur_lat_meniscii_r.meniscus_lat_r.torque.Y	femur_lat_meniscii_r.meniscus_lat_r.torque.Z	femur_med_meniscii_r.femur_med_r.force.X	femur_med_meniscii_r.femur_med_r.force.Y	femur_med_meniscii_r.femur_med_r.force.Z	femur_med_meniscii_r.femur_med_r.torque.X	femur_med_meniscii_r.femur_med_r.torque.Y	femur_med_meniscii_r.femur_med_r.torque.Z	femur_med_meniscii_r.meniscus_med_r.force.X	femur_med_meniscii_r.meniscus_med_r.force.Y	femur_med_meniscii_r.meniscus_med_r.force.Z	femur_med_meniscii_r.meniscus_med_r.torque.X	femur_med_meniscii_r.meniscus_med_r.torque.Y	femur_med_meniscii_r.meniscus_med_r.torque.Z	femur_med_tibia_r.tibia_upper_r.force.X	femur_med_tibia_r.tibia_upper_r.force.Y	femur_med_tibia_r.tibia_upper_r.force.Z	femur_med_tibia_r.tibia_upper_r.torque.X	femur_med_tibia_r.tibia_upper_r.torque.Y	femur_med_tibia_r.tibia_upper_r.torque.Z	femur_med_tibia_r.femur_med_r.force.X	femur_med_tibia_r.femur_med_r.force.Y	femur_med_tibia_r.femur_med_r.force.Z	femur_med_tibia_r.femur_med_r.torque.X	femur_med_tibia_r.femur_med_r.torque.Y	femur_med_tibia_r.femur_med_r.torque.Z	femur_lat_tibia_r.tibia_upper_r.force.X	femur_lat_tibia_r.tibia_upper_r.force.Y	femur_lat_tibia_r.tibia_upper_r.force.Z	femur_lat_tibia_r.tibia_upper_r.torque.X	femur_lat_tibia_r.tibia_upper_r.torque.Y	femur_lat_tibia_r.tibia_upper_r.torque.Z	femur_lat_tibia_r.femur_lat_r.force.X	femur_lat_tibia_r.femur_lat_r.force.Y	femur_lat_tibia_r.femur_lat_r.force.Z	femur_lat_tibia_r.femur_lat_r.torque.X	femur_lat_tibia_r.femur_lat_r.torque.Y	femur_lat_tibia_r.femur_lat_r.torque.Z	aACL_R	pACL_R	aPCL_R	pPCL_R	aMCL_R	mMCL_R	pMCL_R	aLCL_R	mLCL_R	pLCL_R	ground_prescribedForce_fx	ground_prescribedForce_fy	ground_prescribedForce_fz	ground_prescribedForce_px	ground_prescribedForce_py	ground_prescribedForce_pz
      0.00000000	     37.48087652	     28.28714471	     30.25598133	     13.28977762	     14.47626353	     15.91713841	     41.79832242	     20.39245219	     37.76820936	     36.00882819	      7.58878436	     27.93927808	     20.68957741	     14.51222487	     12.16230296	     19.66717628	     12.54860288	     11.16605282	      7.77630093	     18.12681708	     27.55933735	     20.56469162	     63.94906620	     55.74758807	     18.09791099	      9.16719286	     20.03897647	     52.57271277	     32.47449261	     33.07778270	     40.77186739	     67.48690598	     31.69931831	    152.72720615	     92.44658902	     14.93332009	     15.26895791	     41.82851940	     21.62523106	     46.40594865	      8.86060096	     25.04818486	      7.96045570	     37.48087652	     28.28714471	     30.25598133	     13.28977762	     14.47626353	     15.91713841	     42.06683902	     20.39635155	     37.67631238	     36.01822118	      7.59254209	     27.93927808	     20.68957741	     14.51222487	     12.16230296	     19.66717628	     12.58139899	     11.16605282	      7.78214370	     18.12681708	     27.55933735	     20.56469162	     63.94906620	     55.74758807	     18.09791099	      9.16719286	     20.03897647	     52.59637061	     32.48786114	     37.22481259	     39.87514307	     67.71424671	     31.64857027	    152.72720615	     92.44658902	     14.93332009	     15.26895791	     41.82851940	     21.62523106	     46.40594865	      8.86060096	     25.04818486	      7.96045570	    124.99446086	    124.99446086	     44.97041513	     44.97041513	     60.98287244	     60.98287244	     10.79313158	     21.57778612	      0.58543435	     -0.79844578	      0.27807930	      4.50282251	    -10.79313158	    -21.57778612	     -0.58543435	      0.68609707	     -0.33422826	     -0.36202548	     -3.49763635	      9.98414444	     -0.64189172	      0.44869095	      0.07708605	     -1.23302340	      3.49763635	     -9.98414444	      0.64189172	     -0.14918567	     -0.05921307	     -0.12096530	      0.00000000	      0.00000000	      0.00000000	      0.00000000	      0.00000000	      0.00000000	      0.00000000	      0.00000000	      0.00000000	      0.00000000	      0.00000000	      0.00000000	      0.00000000	      0.00000000	      0.00000000	      0.00000000	      0.00000000	      0.00000000	      0.00000000	      0.00000000	      0.00000000	      0.00000000	      0.00000000	      0.00000000	     26.23636035	     52.63551313	      0.00000000	      0.00000000	      0.00000000	      3.83340630	     15.82680930	      0.67560592	      0.00000000	      1.56026721	    110.00000000	      0.00000000	      0.00000000	      0.03000000	     -0.03000000	      0.00000000
      0.00100000	     37.47068608	     28.27022932	     30.24086714	     13.26950867	     14.46480712	     15.91260065	     40.66970382	     19.72440241	     36.80139509	     32.86996269	      7.05965415	     27.92554748	     20.64313666	     14.50364319	     12.15716021	     19.66293667	     12.30575187	     11.15324218	      7.29633305	     18.11779344	     27.54583488	     20.55620729	     63.92578024	     55.73415570	     18.08271668	      9.16509816	     20.03713766	     51.12366245	     29.96611026	     30.57365552	     38.06342469	     64.75041071	     30.41194148	    148.50028785	     92.13912351	     14.98908178	     15.28211767	     43.12702641	     21.39864345	     46.09894261	      9.16087808	     25.28926585	      8.05797186	     37.47068608	     28.27022932	     30.24086714	     13.26950867	     14.46480712	     15.91260065	     42.06228881	     20.39020965	     37.67123261	     35.98888344	      7.57882260	     27.92554748	     20.64313666	     14.50364319	     12.15716021	     19.66293667	     12.58033419	     11.15324218	      7.77413879	     18.11779344	     27.54583488	     20.55620729	     63.92578024	     55.73415570	     18.08271668	      9.16509816	     20.03713766	     52.58867645	     32.47668845	     37.21372981	     39.86386325	     67.70976811	     31.64643975	    152.71327822	     92.44307771	     14.93402208	     15.26942871	     41.82127614	     21.62263156	     46.40335095	      8.85785788	     25.04326423	      7.95848292	    124.81723588	    124.81723588	     44.95337082	     44.95337082	     60.96445217	     60.96445217	     28.30699435	     58.19532931	      2.50523646	     -2.53812221	      0.72856667	     11.80700437	    -28.30699435	    -58.19532931	     -2.50523646	      1.87785135	     -0.87482615	     -0.94898638	     -9.01345360	     27.85297973	     -1.21777005	      1.01610872	      0.19103408	     -3.12653164	      9.01345360	    -27.85297973	      1.21777005	     -0.40156567	     -0.14475972	     -0.36368096	      0.00000000	      0.00000000	      0.00000000	      0.00000000	      0.00000000	      0.00000000	      0.00000000	      0.00000000	      0.00000000	      0.00000000	      0.00000000	      0.00000000	      0.00000000	      0.00000000	      0.00000000	      0.00000000	      0.00000000	      0.00000000	      0.00000000	      0.00000000	      0.00000000	      0.00000000	      0.00000000	      0.00000000	      0.67775245	     24.74278620	      0.00000000	      0.00000000	      0.00000000	    -44.94558092	    -32.59362333	    -63.80656835	      0.00000000	    -63.13020635	    110.00000000	      0.00000000	      0.00000000	      0.03000000	     -0.03000000	      0.00000000
      0.00299396	     37.39069867	     28.14357668	     30.12607714	     13.13665998	     14.38159040	     15.87704699	     36.08044623	     17.21250090	     33.18131260	     24.40070284	      5.94604095	     27.82115578	     20.36834166	     14.43933833	     12.11767397	     19.62938890	     11.26932009	     11.06462983	      5.96876098	     18.04925861	     27.44316518	     20.49096631	     63.74753883	     55.62834037	     17.97285710	      9.14862871	     20.02232098	     45.47995636	     21.36382958	     21.80224004	     28.35109078	     52.10903085	     24.51263651	    124.69030369	     90.47776086	     15.45634311	     15.47735135	     51.60561308	     19.91472260	     44.08870716	     10.95545042	     26.59169347	      8.60148173	     37.39069867	     28.14357668	     30.12607714	     13.13665998	     14.38159040	     15.87704699	     42.02572210	     20.34219661	     37.63056106	     35.77598350	      7.49244498	     27.82115578	     20.36834166	     14.43933833	     12.11767397	     19.62938890	     12.57175890	     11.06462983	      7.71781319	     18.04925861	     27.44316518	     20.49096631	     63.74753883	     55.62834037	     17.97285710	      9.14862871	     20.02232098	     52.52717053	     32.38992465	     37.12708471	     39.77549400	     67.67354655	     31.62921065	    152.60103888	     92.41461370	     14.93941129	     15.27294363	     41.76359898	     21.60176813	     46.38230532	      8.83646476	     25.00428730	      7.94292562	    123.63772620	    123.63772620	     44.82162908	     44.82162908	     60.82302088	     60.82302088	     53.51836278	    112.07021039	     11.07060655	     -7.45612848	      1.36035229	     22.33607866	    -53.51836278	   -112.07021039	    -11.07060655	      3.77039750	     -1.62736660	     -1.81519423	    -18.64094194	     60.88434995	      0.04503119	      1.10049894	      0.34960431	     -6.40687051	     18.64094194	    -60.88434995	     -0.04503119	     -0.80554039	     -0.25396041	     -0.80837229	      0.00000000	      0.00000000	      0.00000000	      0.00000000	      0.00000000	      0.00000000	      0.00000000	      0.00000000	      0.00000000	      0.00000000	      0.00000000	      0.00000000	      0.00000000	      0.00000000	      0.00000000	      0.00000000	      0.00000000	      0.00000000	      0.00000000	      0.00000000	      0.00000000	      0.00000000	      0.00000000	      0.00000000	    -12.30706551	      5.39511268	      0.00000000	      0.00000000	      0.00000000	    -54.37028319	    -42.21506729	    -79.25635677	      0.00000000	    -78.13589401	    110.00000000	      0.00000000	      0.00000000	      0.03000000	     -0.03000000	      0.00000000
      0.00498792	     37.23449778	     27.91151542	     29.91174022	     12.92964211	     14.23496606	     15.80779271	     32.47490883	     15.53704901	     30.75319819	     21.80099710	      5.79320529	     27.62595534	     19.98365762	     14.32137824	     12.04284964	     19.56313269	     10.35097594	     10.91762114	      5.54661382	     17.92126264	     27.25112975	     20.36708945	     63.41115724	     55.42066446	     17.78041593	      9.11638982	     19.99229905	     41.38208013	     16.84605332	     16.87676668	     22.67369138	     39.50417610	     18.66605875	     94.99262576	     88.04605202	     16.30652836	     15.90826522	     63.60154263	     17.89537541	     41.21015730	     13.13701726	     28.27452201	      9.30043659	     37.23449778	     27.91151542	     29.91174022	     12.92964211	     14.23496606	     15.80779271	     41.95190807	     20.24896640	     37.54889284	     35.40130122	      7.36363075	     27.62595534	     19.98365762	     14.32137824	     12.04284964	     19.56313269	     12.55439651	     10.91762114	      7.62242470	     17.92126264	     27.25112975	     20.36708945	     63.41115724	     55.42066446	     17.78041593	      9.11638982	     19.99229905	     52.40394878	     32.22293302	     36.95878486	     39.60333716	     67.59976180	     31.59412049	    152.37358043	     92.35643715	     14.94944977	     15.27915671	     41.64868067	     21.55973271	     46.33932944	      8.79505736	     24.92742736	      7.91244912	    121.76755328	    121.76755328	     44.56975449	     44.56975449	     60.55496673	     60.55496673	     65.42703161	    134.07388880	     20.28568850	    -11.79635891	      1.63096072	     27.32034856	    -65.42703161	   -134.07388880	    -20.28568850	      4.65754007	     -1.94273451	     -2.23505498	    -12.24230355	     83.35979525	      4.87853243	     -0.40494985	      0.15256724	     -3.52566708	     12.24230355	    -83.35979525	     -4.87853243	     -1.05835298	     -0.08878873	     -1.23616674	      1.68346524	    -40.38277759	     10.31178303	     -0.75736175	     -0.17743874	     -0.58425274	     -1.68346524	     40.38277759	    -10.31178303	      4.92453124	      0.17931972	     -0.08869837	      0.00000000	      0.00000000	      0.00000000	      0.00000000	      0.00000000	      0.00000000	      0.00000000	      0.00000000	      0.00000000	      0.00000000	      0.00000000	      0.00000000	     -5.41187126	      7.57985213	      0.00000000	      0.00000000	      0.00000000	    -30.88176387	    -18.96503207	    -53.46226556	      0.00000000	    -51.58516534	    110.00000000	      0.00000000	      0.00000000	      0.03000000	     -0.03000000	      0.00000000
